<svg width="35" height="28" viewBox="0 0 35 28" fill="none" xmlns="http://www.w3.org/2000/svg">
<path d="M7.31832 10.7553L7.31822 10.7547C6.71791 7.11298 6.16374 3.94853 6.10027 3.61895C6.08189 3.57244 6.06166 3.54635 6.03293 3.52498C5.99615 3.49762 5.92903 3.46612 5.79608 3.43974C5.52524 3.38601 5.06426 3.36779 4.24846 3.36779C3.69998 3.36779 3.14539 3.33235 2.68464 3.27596C2.45431 3.24777 2.24529 3.21408 2.07096 3.17637C1.90061 3.13952 1.74993 3.09607 1.64464 3.04385C1.2497 2.84796 0.990733 2.44627 0.892495 2.03048C0.794312 1.61492 0.846997 1.14219 1.13379 0.8008C1.20741 0.713154 1.32567 0.670061 1.44196 0.641104C1.56895 0.609482 1.74364 0.58379 1.97872 0.561985C2.45034 0.518242 3.19583 0.487576 4.35659 0.467169C6.68019 0.426321 10.69 0.426338 17.5526 0.449652L17.5528 0.449654L33.5592 0.519602L33.6768 0.520115L33.7335 0.623236L34.0156 1.13619L34.0158 1.13608L34.02 1.1446C34.0475 1.2009 34.0601 1.26787 34.0675 1.32641C34.0754 1.3897 34.0794 1.46444 34.0807 1.54774C34.0831 1.71464 34.0744 1.92993 34.0564 2.18412C34.0204 2.69327 33.9465 3.37287 33.8452 4.16304C33.6423 5.74417 33.3282 7.77851 32.9827 9.79993C32.6372 11.8213 32.2599 13.8324 31.9304 15.3669C31.7658 16.1337 31.6125 16.7843 31.4806 17.2586C31.4147 17.4953 31.3531 17.6922 31.2969 17.839C31.2689 17.9122 31.2406 17.9774 31.2119 18.0305C31.187 18.0763 31.1483 18.1399 31.0902 18.182L31.0902 18.1821L31.0884 18.1833C31.0134 18.2365 30.9101 18.2699 30.7965 18.2953C30.6772 18.3219 30.5223 18.3448 30.3262 18.3648C29.9337 18.4049 29.3577 18.4357 28.534 18.459C26.8855 18.5058 24.2267 18.5232 20.0198 18.5232C15.0979 18.5232 12.4546 18.5174 10.9925 18.4619C10.2635 18.4342 9.81515 18.3938 9.52084 18.3321C9.21501 18.2679 9.0586 18.1771 8.92599 18.0455C8.80621 17.9267 8.71075 17.718 8.61783 17.4338C8.52164 17.1396 8.41782 16.7294 8.29838 16.1735C8.05931 15.0609 7.75306 13.3429 7.31832 10.7553ZM29.3448 13.8131C29.5358 12.688 29.8002 11.1433 30.094 9.45287C30.3759 7.76353 30.6224 6.2031 30.7896 5.05098C30.8732 4.47458 30.9368 4.00187 30.975 3.66682C30.9937 3.50321 31.006 3.37491 31.0118 3.28429C30.9841 3.28137 30.9522 3.27839 30.9159 3.27539C30.7504 3.26173 30.5095 3.24884 30.2021 3.23685C29.5882 3.21289 28.7184 3.19288 27.6769 3.17686C25.5945 3.14482 22.8309 3.1288 20.0668 3.1288C17.3027 3.1288 14.5391 3.14482 12.4567 3.17686C11.4153 3.19288 10.5455 3.21289 9.93153 3.23685C9.62413 3.24884 9.38326 3.26173 9.21781 3.27539C9.18147 3.27839 9.14954 3.28137 9.12189 3.28429C9.12769 3.37491 9.14002 3.50321 9.15868 3.66682C9.19689 4.00187 9.26045 4.47458 9.34409 5.05098C9.51126 6.2031 9.75777 7.76353 10.0396 9.45287C10.3334 11.1433 10.5979 12.688 10.7889 13.8131C10.8844 14.3757 10.9615 14.8334 11.0148 15.152C11.0397 15.3008 11.0594 15.4193 11.0733 15.5041C11.0806 15.5044 11.0882 15.5048 11.096 15.5051C11.2166 15.5101 11.396 15.5148 11.6289 15.5191C12.0941 15.5279 12.7674 15.5352 13.5987 15.541C15.261 15.5526 17.5521 15.5585 20.0668 15.5585C22.5933 15.5585 24.8845 15.5526 26.5438 15.541C27.3736 15.5352 28.0447 15.5279 28.5081 15.5191C28.74 15.5148 28.9186 15.5101 29.0386 15.5051C29.0461 15.5048 29.0534 15.5045 29.0604 15.5041C29.0743 15.4194 29.094 15.3008 29.1189 15.152C29.1722 14.8334 29.2493 14.3757 29.3448 13.8131ZM29.1865 15.4959L29.1863 15.4959L29.1865 15.4959Z" fill="black" stroke="black" stroke-width="0.4"/>
<path d="M9.28993 23.7326C9.28993 23.2843 9.31852 22.9554 9.46736 22.6366C9.61353 22.3236 9.86688 22.0395 10.2657 21.6553C10.6531 21.2596 10.9393 21.0084 11.2545 20.8636C11.575 20.7163 11.9057 20.688 12.3575 20.688C14.8304 20.688 16.3523 23.2757 15.0663 25.3528C13.4103 28.0648 9.28993 26.9203 9.28993 23.7326ZM12.4515 23.9522C12.513 23.9522 12.5805 23.8954 12.5805 23.8025C12.5805 23.7393 12.5401 23.6804 12.4453 23.6543C12.3515 23.6285 12.2355 23.6487 12.1498 23.7307C12.1309 23.7528 12.1291 23.7679 12.1292 23.7761C12.1293 23.7874 12.1339 23.8082 12.1555 23.8353C12.2001 23.8914 12.303 23.9522 12.4515 23.9522Z" fill="black" stroke="black" stroke-width="0.4"/>
<path d="M25.045 25.3546L25.045 25.3546L25.0444 25.3537C24.5736 24.5963 24.5214 23.6538 24.7827 22.8271C25.0437 22.0008 25.6259 21.2655 26.4553 20.9358C28.7297 19.9948 31.0981 21.7578 30.7715 24.1784C30.3931 27.1033 26.6194 27.8584 25.045 25.3546ZM27.7057 23.9522C27.7848 23.9522 27.8583 23.8771 27.8583 23.8025C27.8583 23.7279 27.7848 23.6528 27.7057 23.6528C27.6266 23.6528 27.5532 23.7279 27.5532 23.8025C27.5532 23.8771 27.6266 23.9522 27.7057 23.9522Z" fill="black" stroke="black" stroke-width="0.4"/>
</svg>
