<svg width="34" height="30" viewBox="0 0 34 30" fill="none" xmlns="http://www.w3.org/2000/svg">
<path d="M12.8788 6.37403C9.96818 7.36544 8.11364 9.9148 8.11364 12.9019C8.11364 16.0049 10.2258 18.7217 13.2652 19.5328C14.1924 19.7775 15.725 19.7775 16.678 19.5328C17.3606 19.3526 18.2235 18.9534 19.022 18.4384C19.3053 18.2581 19.4212 18.3483 22.1258 21.0521C23.6712 22.5843 25.0235 23.8461 25.1265 23.8461C25.4871 23.8461 25.8864 23.4599 25.8864 23.0993C25.8864 22.829 25.3197 22.1981 23.1045 19.9835L20.3356 17.1895L20.722 16.623C21.8682 14.9105 22.1386 12.3869 21.3788 10.4427C20.5803 8.39549 18.8159 6.82467 16.7295 6.27102C15.6477 5.97488 13.8833 6.02639 12.8788 6.37403ZM16.7811 7.86759C20.4515 9.15514 21.5076 13.8676 18.7515 16.6616C16.7167 18.7217 13.4068 18.7732 11.2818 16.7646C9.15682 14.756 9.06667 11.3697 11.0629 9.25815C12.5826 7.66158 14.7205 7.13368 16.7811 7.86759Z" fill="#8965D3"/>
</svg>
