<svg width="32" height="33" viewBox="0 0 32 33" fill="none" xmlns="http://www.w3.org/2000/svg">
<path d="M13.2467 0.187683C11.355 0.543551 10.1188 0.974338 8.54551 1.81718C4.44366 3.98985 1.65291 7.49234 0.43547 12.0062C-0.145157 14.1414 -0.145157 17.9249 0.43547 20.0601C1.97132 25.754 6.29792 30.0806 11.9731 31.6164C14.0896 32.1783 17.9104 32.1783 20.0269 31.6164C25.7021 30.0806 30.0287 25.754 31.5645 20.0601C32.1452 17.9249 32.1452 14.1414 31.5645 12.0062C30.01 6.29362 25.6272 1.91083 20.0269 0.468631C18.0977 -0.0183454 15.026 -0.149455 13.2467 0.187683ZM18.772 2.47273C21.4504 3.03462 23.5856 4.13969 25.6084 6.06887C30.422 10.6577 31.2461 18.1309 27.5376 23.675C27.0881 24.368 26.4513 25.1733 26.1329 25.473L25.571 26.0162L23.7916 25.1546C22.8177 24.6864 21.544 24.0121 20.9821 23.6375L19.9333 22.9632L20.7387 21.9705C22.1996 20.1725 22.8551 18.3931 23.0424 15.6586C23.3047 12.0062 22.2745 8.74724 20.439 7.3425C19.0904 6.31235 18.1165 6.03141 16 6.03141C13.8835 6.03141 12.9096 6.31235 11.561 7.3425C9.72549 8.74724 8.69535 12.0062 8.95757 15.6586C9.14486 18.3931 9.80041 20.1725 11.2613 21.9705L12.0667 22.9632L11.0179 23.6375C10.456 24.0121 9.18232 24.6864 8.20837 25.1546L6.42903 26.0162L5.86714 25.473C5.54873 25.1733 4.91191 24.368 4.46239 23.675C0.753878 18.1309 1.57799 10.6577 6.39157 6.06887C9.76295 2.86606 14.2769 1.53623 18.772 2.47273ZM17.7606 8.39137C18.7908 8.70978 19.9707 9.92722 20.3828 11.0885C20.8136 12.3434 20.9821 15.0967 20.7012 16.7074C20.4015 18.3744 19.8396 19.5918 18.6409 21.0528C17.7044 22.1953 17.6108 22.4575 17.6857 23.2442C17.7793 24.1807 19.1841 25.3232 22.1247 26.8216L23.6793 27.6082L22.8551 28.0952C18.8282 30.4552 13.1718 30.4552 9.12613 28.0952L8.32075 27.6082L9.93152 26.7841C11.8794 25.7727 13.6213 24.6114 14.0146 24.0495C14.5953 23.2254 14.408 22.3451 13.3591 21.0528C12.1604 19.5918 11.5985 18.3744 11.2988 16.7074C11.0179 15.0967 11.1864 12.3434 11.6172 11.0885C11.9918 9.98341 13.1905 8.70978 14.127 8.4101C15.026 8.12915 16.8241 8.11042 17.7606 8.39137Z" fill="#8965D3"/>
</svg>
