<svg width="78" height="78" viewBox="0 0 78 78" fill="none" xmlns="http://www.w3.org/2000/svg">
<path d="M41.0719 26.843L51.2027 32.6625V45.3375L27.0105 59.2313L2.81834 45.3375V32.6625L27.0105 18.7688L34.1707 22.8668L36.9281 21.2824L27.0105 15.5848L0.0609131 31.0781V46.9219L27.0105 62.4153L53.9754 46.9219V31.0781L43.8293 25.2586L41.0719 26.843Z" fill="#8965D3"/>
<path d="M50.9894 15.5848L24.0246 31.0781V46.9219L34.1707 52.7414L36.9281 51.157L26.7973 45.3375V32.6625L50.9894 18.7688L75.1816 32.6625V45.3375L50.9894 59.2313L43.8293 55.1332L41.0719 56.7176L50.9894 62.4153L77.9391 46.9219V31.0781L50.9894 15.5848Z" fill="#8965D3"/>
</svg>
