<svg width="26" height="22" viewBox="0 0 26 22" fill="none" xmlns="http://www.w3.org/2000/svg">
<path d="M13.0667 4.56213C6.58051 7.07261 1.18837 9.21188 1.07115 9.30956C0.817172 9.53424 0.807403 9.85659 1.04184 10.1399C1.1493 10.2864 2.19451 10.726 4.13842 11.4488L7.06893 12.5429L8.21183 16.206C9.38403 19.9669 9.49149 20.2111 9.96037 20.2111C10.1167 20.2111 10.8395 19.664 13.2523 17.7006C13.8384 17.2219 14.1608 17.1145 14.5027 17.2708C14.6394 17.3294 16.0851 18.3453 17.7067 19.5273C20.8326 21.7935 21.0475 21.901 21.4187 21.4907C21.5457 21.354 22.2001 18.3551 23.7338 11.0093C24.906 5.35337 25.873 0.645017 25.873 0.547333C25.873 0.273819 25.5116 -0.00946432 25.1697 0.000304056C24.9939 0.0100724 19.5431 2.06143 13.0667 4.56213ZM20.4809 4.62074C20.4614 4.69889 18.3612 6.69164 15.8116 9.06535C13.2621 11.4293 11.0447 13.5295 10.8981 13.7444C10.6637 14.0668 10.5953 14.3207 10.4195 15.532C10.0874 17.9057 9.90176 17.7983 9.01284 14.6822C8.32905 12.2498 8.30951 12.0154 8.75886 11.5954C9.14959 11.2242 20.1195 4.48399 20.3344 4.48399C20.4418 4.48399 20.5004 4.5426 20.4809 4.62074Z" fill="#8965D3"/>
</svg>
