<svg width="35" height="25" viewBox="0 0 35 25" fill="none" xmlns="http://www.w3.org/2000/svg">
<path d="M2.93015 1.03183C2.3409 1.35597 1.83294 1.84218 1.42656 2.49045L0.817 3.46287L0.756043 11.9917C0.695087 21.3715 0.715406 21.6956 1.85325 23.0327C3.15365 24.5318 2.60505 24.4913 17.8238 24.4305L31.356 24.3698L32.2501 23.762C32.7174 23.4176 33.3473 22.7288 33.6317 22.2426L34.1397 21.331L34.2007 13.1667C34.2616 3.98959 34.2007 3.3008 33.1238 2.04476C31.7827 0.48485 32.6564 0.565884 17.4377 0.565884H3.82417L2.93015 1.03183ZM31.1732 3.32106L31.8031 3.84778V9.09476V14.3417H17.3768H2.95047V9.47968C2.95047 4.35425 3.07238 3.50338 3.90545 3.01718C4.14927 2.87537 8.43652 2.81459 17.4174 2.79433H30.5433L31.1732 3.32106ZM31.8031 18.8594C31.8031 21.1486 31.6405 21.6146 30.6449 22.0198C30.2182 22.1818 26.6015 22.2426 17.1329 22.2021L4.16959 22.1413L3.62098 21.5741C3.0927 21.0474 3.05206 20.9055 2.9911 18.8999L2.90983 16.7728H17.3564H31.8031V18.8594Z" fill="#8965D3"/>
</svg>
