<svg width="32" height="23" viewBox="0 0 32 23" fill="none" xmlns="http://www.w3.org/2000/svg">
<path d="M5.63079 0.0902335C3.48767 0.341065 2.17171 0.880354 1.30694 1.84606C0.0912543 3.20055 -0.0591404 4.30421 0.016057 11.4905C0.0536557 16.2689 0.0912543 16.9211 0.304314 17.7613C0.918425 20.0815 2.02132 21.2855 4.15191 21.9628C5.83132 22.5021 6.93421 22.5522 17.0232 22.4895C25.6082 22.4519 26.5733 22.4268 27.3628 22.2262C29.318 21.7245 30.4083 20.9218 31.1227 19.4795C31.9624 17.7864 32 17.3976 32 10.8635C32 4.60521 31.9624 4.17879 31.3608 2.8243C30.9347 1.88368 30.0574 1.06848 29.0798 0.704772C27.3127 0.0400671 27.3503 0.0400674 16.5845 0.00244261C11.0701 -0.010099 6.13211 0.0275255 5.63079 0.0902335ZM17.1109 8.36769C19.0034 9.34593 20.6577 10.2364 20.7956 10.3493C21.1716 10.6628 21.2217 11.2397 20.9209 11.641C20.6076 12.0298 13.7803 15.6293 13.3511 15.6293C13.1881 15.6293 13.022 15.6561 12.7179 15.4638C12.4139 15.2714 12.386 14.8679 12.386 14.8679V11.1394C12.386 7.25149 12.386 7.17624 12.6617 6.88778C12.8247 6.7122 13.0753 6.59932 13.3009 6.59932C13.539 6.59932 14.9678 7.26403 17.1109 8.36769Z" fill="#8965D3"/>
</svg>
